<!-- width="253.64999" height="160.97501" -->
<svg
version="1.1"
width="101.459996"
height="64.390004"
id="svg2"
xml:space="preserve">
	<g transform="scale(0.4)">
		<metadata
		id="metadata8"></metadata>
		<defs
		id="defs6">
			<clipPath
			id="clipPath18">
				<path
				d="m 0,0 2029,0 0,1287.76 -2029,0 L 0,0 z"

				id="path20" />
			</clipPath>
		</defs>
		<g
		transform="matrix(1.25,0,0,-1.25,0,160.975)"
		id="g10">
			<g
			transform="scale(0.1,0.1)"
			id="g12">
				<g
				id="g14">
					<g
					clip-path="url(#clipPath18)"
					id="g16">
						<path
						d="m 789.703,815.797 c -0.254,-0.039 -0.519,-0.02 -0.781,-0.039 -21.621,-92.051 -95.293,-93.379 -95.293,-93.379 -38.879,-2.734 -61.797,14.023 -68.508,19.824 -0.809,-0.742 -1.66,-1.445 -2.625,-2.09 -8.984,-5.996 -21.633,-4.883 -37.539,3.321 l 4.824,9.375 c 8.418,-4.317 19.922,-8.516 26.836,-3.926 7.481,4.98 8.106,18.945 7.735,23.906 l 10.527,0.84 c 0.039,-0.723 0.918,-12.969 -3.945,-23.281 55.691,-23.399 85.781,-7.5 85.781,-7.5 46.101,13.418 58.152,63.418 60.32,74.843 -5.242,2.11 -10.398,5.86 -15.379,11.348 l 7.821,7.109 c 6.523,-7.168 12.941,-10.507 19.062,-9.863 10.891,1.133 18.574,14.102 18.664,14.238 l 9.141,-5.293 c -0.43,-0.722 -10.391,-17.695 -26.641,-19.433 z m -224.113,-18.184 33.664,16.504 -18.496,-31.699 2.644,17.187 -17.812,-1.992 z m -58.836,49.825 -10.371,1.992 c 4.433,22.949 15.047,40.195 31.543,51.289 29.461,19.785 66.824,12.597 68.398,12.304 l -2.07,-10.371 c -0.352,0.078 -34.727,6.602 -60.488,-10.742 -14.063,-9.453 -23.145,-24.433 -27.012,-44.472 z m 115.086,0.253 c 5.156,0 9.348,-4.16 9.348,-9.316 0,-5.156 -4.192,-9.336 -9.348,-9.336 -5.156,0 -9.324,4.18 -9.324,9.336 0,5.156 4.168,9.316 9.324,9.316 z M 679.801,801.5 c 7.781,-4.59 14.578,-5.957 20.183,-4.004 8.157,2.793 11.789,11.836 11.809,11.934 l 9.871,-3.809 c -0.215,-0.527 -5.32,-13.594 -18.113,-18.066 -8.703,-3.047 -18.496,-1.407 -29.113,4.863 l 5.363,9.082 z m 18.613,90.254 c 5.156,0 9.324,-4.16 9.324,-9.316 0,-5.157 -4.168,-9.336 -9.324,-9.336 -5.156,0 -9.328,4.179 -9.328,9.336 0,5.156 4.172,9.316 9.328,9.316 z m 63.184,4.863 -9.883,-11.23 14.5,-7.246 -36.289,1.972 31.672,16.504 z m -74.414,90.176 c -1.125,0 -2.227,-0.078 -3.352,-0.078 -15.117,-16.856 -15.906,-36.621 -15.945,-38.067 l -10.559,0.215 c 0,0.371 0.656,19.102 13.086,37.403 -151.836,-8.731 -272.715,-134.981 -272.715,-288.965 0,-8.633 0.461,-17.11 1.184,-25.547 33.269,2.851 57.793,5.078 57.793,5.078 143.183,16.973 417.5,24.57 519.844,26.895 -3.438,156.66 -131.856,283.066 -289.336,283.066"

						id="path22"
						style="fill:#fff000;fill-opacity:1;fill-rule:nonzero;stroke:none" />
						<path
						d="m 695.973,997.145 c 12.449,8.225 30.398,14.025 56.328,13.655 l 0.137,10.54 c -36.583,0.57 -59.063,-10.54 -72.93,-24.176 -161.895,-4.102 -292.363,-136.992 -292.363,-299.863 0,-8.906 0.468,-17.715 1.23,-26.446 1.766,0.157 3.523,0.313 5.254,0.45 1.758,0.136 3.543,0.312 5.254,0.449 -0.723,8.437 -1.184,16.914 -1.184,25.547 0,153.984 120.879,280.234 272.715,288.965 -12.43,-18.301 -13.086,-37.032 -13.086,-37.403 l 10.559,-0.215 c 0.039,1.446 0.828,21.211 15.945,38.067 1.125,0 2.227,0.078 3.352,0.078 157.48,0 285.898,-126.406 289.336,-283.066 1.804,0.039 3.562,0.097 5.273,0.117 1.836,0.039 3.594,0.097 5.273,0.117 -3.488,159.434 -131.914,288.555 -291.093,293.184"

						id="path24"
						style="fill:#231f20;fill-opacity:1;fill-rule:nonzero;stroke:none" />
						<path
						d="m 594.254,902.652 2.07,10.371 c -1.574,0.293 -38.937,7.481 -68.398,-12.304 -16.496,-11.094 -27.11,-28.34 -31.543,-51.289 l 10.371,-1.992 c 3.867,20.039 12.949,35.019 27.012,44.472 25.761,17.344 60.136,10.82 60.488,10.742"

						id="path26"
						style="fill:#231f20;fill-opacity:1;fill-rule:nonzero;stroke:none" />
						<path
						d="m 703.551,787.555 c 12.793,4.472 17.898,17.539 18.113,18.066 l -9.871,3.809 c -0.02,-0.098 -3.652,-9.141 -11.809,-11.934 -5.605,-1.953 -12.402,-0.586 -20.183,4.004 l -5.363,-9.082 c 10.617,-6.27 20.41,-7.91 29.113,-4.863"

						id="path28"
						style="fill:#231f20;fill-opacity:1;fill-rule:nonzero;stroke:none" />
						<path
						d="m 788.539,826.285 c -6.121,-0.644 -12.539,2.695 -19.062,9.863 l -7.821,-7.109 c 4.981,-5.488 10.137,-9.238 15.379,-11.348 -2.168,-11.425 -14.219,-61.425 -60.32,-74.843 0,0 -30.09,-15.899 -85.781,7.5 4.863,10.312 3.984,22.558 3.945,23.281 l -10.527,-0.84 c 0.371,-4.961 -0.254,-18.926 -7.735,-23.906 -6.914,-4.59 -18.418,-0.391 -26.836,3.926 l -4.824,-9.375 c 15.906,-8.204 28.555,-9.317 37.539,-3.321 0.965,0.645 1.816,1.348 2.625,2.09 6.711,-5.801 29.629,-22.558 68.508,-19.824 0,0 73.672,1.328 95.293,93.379 0.262,0.019 0.527,0 0.781,0.039 16.25,1.738 26.211,18.711 26.641,19.433 l -9.141,5.293 c -0.09,-0.136 -7.773,-13.105 -18.664,-14.238"

						id="path30"
						style="fill:#231f20;fill-opacity:1;fill-rule:nonzero;stroke:none" />
						<path
						d="m 751.715,885.387 9.883,11.23 -31.672,-16.504 36.289,-1.972 -14.5,7.246"

						id="path32"
						style="fill:#231f20;fill-opacity:1;fill-rule:nonzero;stroke:none" />
						<path
						d="m 599.254,814.117 -33.664,-16.504 17.812,1.992 -2.644,-17.187 18.496,31.699"

						id="path34"
						style="fill:#231f20;fill-opacity:1;fill-rule:nonzero;stroke:none" />
						<path
						d="m 621.84,829.039 c 5.156,0 9.348,4.18 9.348,9.336 0,5.156 -4.192,9.316 -9.348,9.316 -5.156,0 -9.324,-4.16 -9.324,-9.316 0,-5.156 4.168,-9.336 9.324,-9.336"

						id="path36"
						style="fill:#231f20;fill-opacity:1;fill-rule:nonzero;stroke:none" />
						<path
						d="m 698.414,873.102 c 5.156,0 9.324,4.179 9.324,9.336 0,5.156 -4.168,9.316 -9.324,9.316 -5.156,0 -9.328,-4.16 -9.328,-9.316 0,-5.157 4.172,-9.336 9.328,-9.336"

						id="path38"
						style="fill:#231f20;fill-opacity:1;fill-rule:nonzero;stroke:none" />
						<path
						d="m 180.434,511.145 c 69.961,1.308 312.89,13.203 312.89,13.203 253.477,11.875 619.186,-5.274 619.186,-5.274 145.24,0 488.5,-36.972 488.5,-36.972 104.3,-15.84 223.13,-25.079 223.13,-25.079 35.67,0 69.3,-4.707 95.4,-9.804 8.63,25.41 23.56,78.144 16.83,123.34 0,0 2.63,46.211 -108.27,67.347 0,0 -411.92,79.219 -811.95,67.324 0,0 -381.556,-6.621 -559.798,-27.734 0,0 -130.704,-11.875 -198.036,-15.84 0,0 -126.738,-9.238 -155.8,-55.453 0,0 -21.7191,-18.398 5.222,-95.683 37.735,5.839 72.696,0.625 72.696,0.625"

						id="path40"
						style="fill:#80cc28;fill-opacity:1;fill-rule:nonzero;stroke:none" />
						<path
						d="m 1970.7,434.582 c 0,0 -20.28,6.582 -51.16,12.637 -26.1,5.097 -59.73,9.804 -95.4,9.804 0,0 -118.83,9.239 -223.13,25.079 0,0 -343.26,36.972 -488.5,36.972 0,0 -365.709,17.149 -619.186,5.274 0,0 -242.929,-11.895 -312.89,-13.203 0,0 -34.961,5.214 -72.696,-0.625 -27.8708,-4.317 -57.2458,-14.668 -75.195,-37.657 0,0 -47.5274,-58.086 -27.71488,-121.465 0,0 26.41798,-77.91 71.30078,-125.41 0,0 64.6871,-85.84 175.5741,-56.797 0,0 26.418,17.188 223.137,5.289 0,0 516.23,-7.91 677.28,0 0,0 315.56,13.211 620.53,-5.289 0,0 157.11,-23.75 208.6,48.848 0,0 47.53,39.609 47.53,112.227 0,0 9.24,76.582 -58.08,104.316"

						id="path42"
						style="fill:#00a363;fill-opacity:1;fill-rule:nonzero;stroke:none" />
						<path
						d="m 927.887,935.543 2.722,-5.273 186.111,96.37 -2.71,5.27 -186.123,-96.367"

						id="path44"
						style="fill:#231f20;fill-opacity:1;fill-rule:nonzero;stroke:none" />
						<path
						d="m 913.082,948.59 3.281,-4.942 130.687,87.132 -3.29,4.94 -130.678,-87.13"

						id="path46"
						style="fill:#231f20;fill-opacity:1;fill-rule:nonzero;stroke:none" />
						<path
						d="m 792.516,1005 4.179,-4.22 163.68,162.34 -4.168,4.22 L 792.516,1005"

						id="path48"
						style="fill:#231f20;fill-opacity:1;fill-rule:nonzero;stroke:none" />
						<path
						d="m 786.84,1017.69 4.972,-3.24 104.278,159.73 -4.973,3.24 -104.277,-159.73"

						id="path50"
						style="fill:#231f20;fill-opacity:1;fill-rule:nonzero;stroke:none" />
						<path
						d="m 990.211,801.031 2.156,-5.527 208.563,81.836 -2.18,5.547 -208.539,-81.856"

						id="path52"
						style="fill:#231f20;fill-opacity:1;fill-rule:nonzero;stroke:none" />
						<path
						d="m 1015.52,783.98 1.69,-5.703 254.77,75.235 -1.69,5.703 -254.77,-75.235"

						id="path54"
						style="fill:#231f20;fill-opacity:1;fill-rule:nonzero;stroke:none" />
						<path
						d="m 439.918,1060.35 81.836,-95.041 4.5,3.867 -81.836,95.034 -4.5,-3.86"

						id="path56"
						style="fill:#231f20;fill-opacity:1;fill-rule:nonzero;stroke:none" />
						<path
						d="m 387.34,1049.55 97.676,-91.077 4.05,4.336 -97.683,91.071 -4.043,-4.33"

						id="path58"
						style="fill:#231f20;fill-opacity:1;fill-rule:nonzero;stroke:none" />
						<path
						d="m 268.922,960.816 126.726,-84.492 3.282,4.942 -126.727,84.492 -3.281,-4.942"

						id="path60"
						style="fill:#231f20;fill-opacity:1;fill-rule:nonzero;stroke:none" />
						<path
						d="m 195.543,935.445 196.668,-79.199 2.219,5.508 -196.66,79.199 -2.227,-5.508"

						id="path62"
						style="fill:#231f20;fill-opacity:1;fill-rule:nonzero;stroke:none" />
						<path
						d="m 169.32,846.93 212.52,-68.633 1.828,5.644 -212.52,68.653 -1.828,-5.664"

						id="path64"
						style="fill:#231f20;fill-opacity:1;fill-rule:nonzero;stroke:none" />
						<path
						d="m 106.539,788.727 245.516,-29.043 0.703,5.898 -245.516,29.063 -0.703,-5.918"

						id="path66"
						style="fill:#231f20;fill-opacity:1;fill-rule:nonzero;stroke:none" />
						<path
						d="m 555.512,1213.14 68.625,-204.61 5.652,1.9 -68.652,204.59 -5.625,-1.88"

						id="path68"
						style="fill:#231f20;fill-opacity:1;fill-rule:nonzero;stroke:none" />
						<path
						d="m 617.438,1179.25 27.722,-155.78 5.852,1.04 -27.715,155.76 -5.859,-1.02"

						id="path70"
						style="fill:#231f20;fill-opacity:1;fill-rule:nonzero;stroke:none" />
						<path
						d="m 389.371,977.145 -9.238,-17.149 c 0,0 -7.922,19.121 -21.133,32.988 0,0 -90.41,88.436 -185.461,166.306 0,0 -7.266,15.2 4.621,5.28 0,0 110.899,-87.11 192.059,-160.37 0,0 11.886,-13.852 19.152,-27.055"

						id="path72"
						style="fill:#231f20;fill-opacity:1;fill-rule:nonzero;stroke:none" />
						<path
						d="m 197.301,1160.62 c 0,0 102.304,-60.06 139.258,-100.31 0,0 37.617,0.64 73.269,54.1 0,0 20.461,-29.69 41.574,-15.84 0,0 5.274,2.66 13.203,16.5 0,0 27.071,28.38 60.067,31.04 0,0 -21.121,-3.3 -44.227,21.78 0,0 -94.386,100.31 -126.054,112.85 0,0 -7.93,5.94 -20.469,3.94 0,0 -40.918,-3.28 -77.207,-57.42 0,0 -30.383,-49.49 -59.414,-66.64"

						id="path74"
						style="fill:#ef2e31;fill-opacity:1;fill-rule:nonzero;stroke:none" />
						<path
						d="m 258.961,1225.89 c 34.988,52.19 74.785,56.16 75.184,56.18 11.367,1.79 18.378,-3.25 18.664,-3.44 l 0.273,-0.22 0.332,-0.11 c 30.77,-12.19 124.168,-111.23 125.106,-112.23 11.25,-12.23 22.031,-17.87 30.41,-20.53 -26.016,-7.95 -45.293,-27.65 -46.231,-28.63 -7.625,-13.18 -12.469,-15.98 -12.527,-16 -18.926,-12.4 -37.395,13.89 -38.164,15 l -2.227,3.21 -2.16,-3.24 c -31.726,-47.6 -64.871,-52.37 -70.047,-52.84 -34.101,36.45 -117.558,87.11 -135.449,97.78 28.105,18.84 55.613,63.12 56.836,65.07 z m 74.551,61.43 c -1.524,-0.12 -42.422,-4 -79.004,-58.57 -0.352,-0.59 -30.41,-49.24 -58.547,-65.86 l -3.867,-2.27 3.867,-2.28 c 1.027,-0.59 102.394,-60.34 138.652,-99.83 l 0.801,-0.88 1.191,0.02 c 1.575,0.02 37.95,1.56 73.293,52.5 8.602,-10.9 25.965,-24.92 42.957,-13.79 0.352,0.16 5.957,3.26 14.043,17.41 -0.117,-0.24 26.387,27.18 57.981,29.7 l 0,0 c 0.019,0 0.195,0 0.195,0 l -0.617,5.26 c -0.066,0 -0.117,-0.02 -0.184,-0.02 l 0,0 c -0.214,-0.02 -20.148,-2.66 -41.886,20.95 -3.875,4.13 -94.52,100.22 -126.68,113.34 -0.957,0.73 -9.258,6.35 -22.195,4.32"

						id="path76"
						style="fill:#231f20;fill-opacity:1;fill-rule:nonzero;stroke:none" />
						<path
						d="m 406.52,1117.07 -80.52,15.84 -20.449,-15.84 -27.071,28.38 39.61,24.41 c 0,0 -15.184,22.44 -30.371,33.67 0,0 13.879,15.82 31.027,26.39 l 29.043,-30.35 32.996,27.69 c 0,0 19.141,-18.46 25.078,-30.35 l -27.07,-35.64 c 0,0 20.461,-34.32 27.727,-44.2"

						id="path78"
						style="fill:#ffffff;fill-opacity:1;fill-rule:nonzero;stroke:none" />
						<path
						d="m 318.559,1228.2 c 1.445,-1.52 29.121,-30.45 29.121,-30.45 0,0 31.3,26.29 33.039,27.73 3.621,-3.57 18.183,-18.32 23.554,-28.47 -1.015,-1.35 -27.062,-35.65 -27.062,-35.65 l 0.461,-0.76 c 0.769,-1.31 17.695,-29.63 25.918,-41.62 -5.879,1.15 -77.93,15.33 -77.93,15.33 0,0 -18.262,-14.16 -19.992,-15.49 -1.473,1.57 -23.106,24.26 -25.098,26.35 2.578,1.58 39.375,24.28 39.375,24.28 l -0.769,1.15 c -0.617,0.9 -14.746,21.6 -29.531,33.05 3.183,3.49 14.902,15.72 28.914,24.55 z m -0.516,2.85 c -17.129,-10.55 -31.172,-26.5 -31.309,-26.66 l -0.937,-1.07 1.152,-0.86 c 12.91,-9.55 25.985,-27.58 29.246,-32.21 -2.226,-1.39 -39.793,-24.55 -39.793,-24.55 l 29.012,-30.41 c 0,0 20.012,15.49 20.93,16.19 1.152,-0.21 83.25,-16.37 83.25,-16.37 l -2.02,2.74 c -6.699,9.16 -24.844,39.41 -27.187,43.36 1.043,1.34 27.031,35.56 27.031,35.56 l -0.383,0.73 c -5.965,11.95 -24.551,29.96 -25.332,30.74 l -0.867,0.82 c 0,0 -31.172,-26.19 -32.949,-27.7 -1.621,1.7 -28.926,30.24 -28.926,30.24 l -0.918,-0.55"

						id="path80"
						style="fill:#231f20;fill-opacity:1;fill-rule:nonzero;stroke:none" />
						<path
						d="m 1416.36,644.234 c 7.32,-0.8 12.47,-1.504 18.4,-2.363 11.23,-1.641 27.26,-5.293 27.26,-5 5.94,-2.148 15.68,-5.586 16.96,-6.719 l 0.3,0.274 c 2.83,-1.25 7.86,-2.715 12.38,-5.297 0.58,-1.094 17.36,-9.863 18.44,-11.445 6.98,-5.469 15.23,-10.86 20.48,-17.715 2.99,-2.012 12.75,-13.262 13.45,-16.309 3.36,-3.242 10.14,-14.531 10.03,-16.504 0,0 4.4,-10.039 5.29,-12.422 2.44,-6.777 4.78,-13.652 5.73,-15.761 1.97,-7.754 4.73,-15.762 5.34,-29.707 -0.33,-7.11 -0.61,-22.676 -0.61,-22.676 l -122.35,-0.078 c 0,0 -0.43,8.457 -1.98,18.691 -0.19,6.836 -3.32,13.418 -4.03,14.395 -1.82,3.359 -3.23,5.859 -4.99,9.043 -1.28,-0.391 -3.95,6.679 -6.27,8.144 -2.4,2.031 -11.78,9.199 -13.83,9.981 -7.43,3.515 -16.11,5.761 -24.16,5.605 -12.27,0.723 -26.93,-2.637 -37.83,-8.613 -10.03,-4.219 -18.82,-11.035 -26.76,-19.395 -1.59,-1.289 -16.06,-21.25 -16.79,-22.539 -2.49,-3.906 -4.08,-7.929 -5.71,-11.386 -1.81,-1.876 -8.63,-21.797 -8.63,-21.797 -2.09,-1.934 -6.54,-21.368 -7.39,-23.457 -1.67,-5.704 -4.61,-22.246 -4.61,-22.246 -1.55,-14.688 -1.59,-29.043 0,-44.708 0.89,-4.55 2.25,-9.472 2.94,-10.625 0.97,-2.91 3.8,-9.765 6.08,-13.007 3.75,-5.118 9.39,-10.118 13.99,-14.141 2.51,-1.445 11.72,-6.738 13.38,-7.715 6.42,-2.793 13.4,-4.062 13.4,-4.062 12.74,-1.7 23.2,-1.407 34.93,2.382 7.83,2.403 10.84,4.063 16.73,6.036 1.97,1.328 9.64,6.386 11.73,8.359 3.17,3.027 7.1,4.727 9.05,8.359 l 0.59,0 c 4.43,6.426 6.89,8.438 12.39,18.379 3.41,5.45 5.7,9.395 8.28,14.766 2.56,4.394 2.46,7.754 2.46,7.754 l 127.96,-0.703 c 0,0 -3.38,-15.078 -4.06,-17.481 -0.98,-4.179 -4.49,-12.832 -7.4,-19.394 -2.43,-5.742 -4.72,-10.703 -8.67,-16.035 -3.06,-5.801 -6.59,-11.368 -10,-16.426 -3.13,-4.61 -6.03,-8.965 -9.06,-13.418 -1.42,-2.266 -9.2,-12.324 -11.03,-13.946 -7.67,-9.062 -17.76,-17.871 -27.26,-25.132 -6.81,-4.77 -14.61,-10.86 -22.26,-14.11 -2.14,-1.66 -5.47,-2.461 -7.43,-4.332 -3.96,-1.699 -6.05,-2.66 -12.71,-5.019 -7.51,-3.617 -22.15,-7.949 -29.16,-10.739 -2.64,-1.082 -4.18,-0.839 -8.36,-1.64 -7.17,-1.531 -11.19,-1.981 -19.36,-3.09 -6.23,-0.98 -9.03,-1.211 -15.53,-1.68 -10.36,-0.761 -22.34,-0.699 -34.5,-0.269 -2.2,0.39 -12.46,0.738 -25.11,2.668 -1.06,0.39 -12.02,2.25 -23.67,4.98 -1.28,0.571 -12.59,4.481 -16.75,6.449 -4.88,1.231 -9.5,3.18 -14.16,5.293 -3.44,1.95 -6.65,4.059 -10.41,6.387 -3.21,1.442 -18.86,11.481 -23.73,15.371 -11.41,10.211 -20.07,19.242 -29.18,31.543 -1.52,0.586 -10.28,15.391 -11.99,21.387 -1.82,3.066 -9.49,23.516 -10.45,27.168 -1.4,6.406 -3.37,12.031 -3.91,19.004 -2.91,19.355 -1.78,41.719 0.3,60.683 0.51,6.563 2.59,13.184 2.59,13.184 0,2.266 1.85,10.801 2.68,12.969 1.24,4.57 3.1,15.351 4.57,19.472 1.59,4.453 3.26,12.93 6.89,22.032 0.5,2.382 3.18,6.464 3.05,7.968 1.33,3.145 3.61,9.297 3.61,9.297 3.25,5.684 5.77,10.391 6.72,12.891 1.53,2.246 10.9,17.422 11.72,18.711 1.41,1.914 4.02,6.211 6.43,10.019 3.64,3.789 6.25,8.848 10.32,12.461 6.71,7.774 13.91,15.02 22.51,22.051 3.87,3.203 7.36,5.645 10.95,8.359 6,5 13,10.45 20.41,13.36 1.12,1.816 20.33,10.781 26.83,13.828 9.18,3.91 19.21,6.684 19.48,7.23 4.6,1.563 10.18,3.438 15.65,4.063 4.6,2.07 19.98,3.379 21.22,4.746 9.98,1.504 14.2,1.563 21.29,2.383 l -0.24,0 0,0.586 0.24,0 0,-0.586 c 14.87,1.523 24.67,1.523 36.9,0.976"

						id="path82"
						style="fill:#ffffff;fill-opacity:1;fill-rule:nonzero;stroke:none" />
						<path
						d="m 507.113,636.129 c 0,0 -55.672,-257.133 -55.254,-262.465 -0.574,-5.469 -0.574,-11.328 1.321,-16.172 0.73,-2.949 1.472,-5 3.113,-7.676 4.746,-8.359 12.793,-13.964 21.359,-17.011 0.274,-1.172 0.957,-0.703 1.668,-1.387 10.45,-4.629 23.457,-5.059 34.231,-4.063 16.953,1.68 33.027,8.36 43.789,20.098 9.336,8.789 13.789,20.098 18.828,31.817 2.43,7.617 6.18,21.113 6.98,26.484 0.559,3.086 51.211,230.375 51.211,230.375 l 125.45,0.059 c 0,0 -60.711,-283.696 -69.5,-303.09 -1.672,-5.918 -3.801,-11.836 -6.27,-17.481 -12.394,-27.812 -29.316,-41.695 -33.887,-45.765 -3.789,-3.321 -9.257,-6.672 -13.437,-10.051 -1.973,0.168 -1.973,-2.211 -4.024,-2.09 -4.336,-2.949 -10.343,-5.18 -15.07,-7.973 -2.078,-0.277 -3.476,-2.066 -5.644,-2.347 -5.106,-1.813 -9.883,-4.61 -15.45,-5.43 -3.621,-1.973 -8.25,-2.262 -11.98,-3.922 -31.856,-7.809 -63.332,-9.078 -96.828,-7.809 -21.641,1.52 -43.446,2.79 -63.621,7.809 -4.953,0.563 -9.055,2.621 -13.711,3.652 -0.422,1.09 -2.082,0.68 -3.086,1.368 -6.27,1.812 -11.973,5.429 -18.399,7.261 -2.394,1.532 -5.441,2.5 -7.402,4.442 -1.777,0.168 -2.785,0.859 -3.945,1.988 -16.602,11.578 -31.243,25.922 -39.16,44.18 -1.145,1.738 -8.594,17.578 -9.395,27.519 -0.266,4.649 -1.652,8.242 -1.652,12.735 0,2.617 -1.524,6.152 0,9.043 l -0.438,11.289 0.438,0 c 0.617,2.656 0.148,6.035 0.293,8.379 l 0.324,0 c 0.332,3.359 0.332,6.699 1.347,9.746 0.157,4.921 52.872,256.234 52.872,256.234 l 124.929,0.254"

						id="path84"
						style="fill:#ffffff;fill-opacity:1;fill-rule:nonzero;stroke:none" />
						<path
						d="m 1024.94,450.676 c -0.98,-6.914 -0.98,-12.051 -2.84,-18.321 -1,-7.675 -10.33,-30.429 -9.6,-28.984 -6.27,-12.812 -14.203,-24.98 -25.121,-35.82 -0.43,-1.27 -10.723,-8.086 -14.797,-11.055 -3.602,-2.07 -7.383,-3.769 -11.309,-4.98 -3.328,-1.817 -7.324,-3.204 -9.988,-3.614 -5.5,-1.093 -7.668,-2.09 -14.14,-2.675 -9.211,-1.094 -13.391,-1.094 -24.114,-1.68 -14.246,-0.567 -44.804,0 -44.804,0 l 41.816,193.125 c 0,0 52.629,1.855 66.758,-1.738 5.109,-1.797 18.39,-5.821 19.902,-7.149 6.467,-2.734 10.377,-7.871 15.797,-12.5 1.13,-2.89 6.28,-11.836 7.4,-14.082 l -0.43,-0.254 c 2.4,-2.5 5.82,-18.047 5.47,-19.433 0.11,-9.883 1.72,-18.457 0,-30.84 z m 123.82,36.64 c 0,6.114 -1.12,10.957 -1.66,17.715 -1.55,5.039 -0.93,11.309 -2.91,15.723 -0.46,5.586 -3.09,10.078 -4.06,15.762 -1.15,4.004 -2.52,8.515 -4.76,13.418 -2.67,6.621 -9.86,18.632 -11.74,22.754 -1.37,3.417 -4.73,7.558 -7.35,10.742 -1.32,1.172 -5.54,9.062 -11.77,14.414 -6.66,5.39 -20.35,14.746 -20.35,14.746 -7.39,3.594 -13.5,7.949 -21.78,10.332 -1.35,2.09 -23.7,7.836 -28.74,9.125 -10.22,0.664 -19.09,2.324 -28.92,3.027 -61.462,2.344 -195.173,1.27 -195.173,1.27 l -87.063,-398.153 155.735,-0.41 c 7.793,1.117 16.726,0.547 24.843,0.41 0,0 42.098,3.661 61.27,6.739 8.055,1.679 16.309,3.32 24.356,5.039 4.382,1.992 9.374,2.519 13.692,4.609 7.68,2.891 15.62,4.832 22.91,8.75 2.08,-0.387 28.18,14.363 38.51,23.442 1.68,1.269 24.43,19.804 31.83,28.73 5.84,6.562 10.47,12.891 16.04,20.371 5,7.969 10.68,16.797 14.06,25.801 1.81,1.387 5.61,13.418 6.3,16.484 3.8,10.078 8.13,24.922 8.01,25.215 1.4,2.051 2.8,10.82 3.69,16.27 1.66,6.269 3.99,18.281 4.76,29.55 1.67,19.063 0.27,38.125 0.27,38.125"

						id="path86"
						style="fill:#ffffff;fill-opacity:1;fill-rule:nonzero;stroke:none" />
						<path
						d="m 1308.49,1138.73 0,-94.87 c 0,-11.08 -1.39,-28.01 14.65,-25.54 14.41,2.24 14.41,12.95 14.62,23.86 l 0,101.1 29.46,4.57 0,-106.92 c 0,-15.56 -1.78,-42.262 -44.3,-48.871 -27.49,-4.27 -43.89,5.808 -43.89,33.231 l 0,108.87 29.46,4.57"

						id="path88"
						style="fill:#ef2e31;fill-opacity:1;fill-rule:nonzero;stroke:none" />
						<path
						d="m 1427.32,1097.31 -3.36,21.63 -0.42,-0.06 -3.16,-22.64 -6.3,-40.07 20.74,3.22 -7.5,37.92 z m 13.05,61.9 35.79,-141.02 -31.46,-4.89 -5.53,23.84 -29.86,-4.64 -5.34,-25.51 -29.25,-4.55 34.59,151.94 31.06,4.83"

						id="path90"
						style="fill:#ef2e31;fill-opacity:1;fill-rule:nonzero;stroke:none" />
						<path
						d="m 1516.4,1171.02 0,-119.36 30.84,4.78 0,-27.21 -60.3,-9.37 0,146.58 29.46,4.58"

						id="path92"
						style="fill:#ef2e31;fill-opacity:1;fill-rule:nonzero;stroke:none" />
						<path
						d="m 1588.31,1182.18 0,-146.58 -29.47,-4.57 0,146.58 29.47,4.57"

						id="path94"
						style="fill:#ef2e31;fill-opacity:1;fill-rule:nonzero;stroke:none" />
						<path
						d="m 1675.83,1195.78 0,-27.22 -23.33,-3.62 0,-119.37 -29.46,-4.58 0,119.37 -23.13,-3.59 0,27.21 75.92,11.8"

						id="path96"
						style="fill:#ef2e31;fill-opacity:1;fill-rule:nonzero;stroke:none" />
						<path
						d="m 1747.57,1237.23 -25.49,-30.78 -13.65,5.66 18.99,30.93 20.15,-5.81"

						id="path98"
						style="fill:#ef2e31;fill-opacity:1;fill-rule:nonzero;stroke:none" />
						<path
						d="m 1191.01,1006.49 c -11.91,10.2 -13.69,38.12 -13.69,53.84 0,22.78 3.38,61.56 26.13,65.16 5.06,0.81 9.54,-0.4 13.31,-3.62 11.14,-9.51 13.48,-34.51 13.48,-53.81 0,-18.35 -2.55,-61.42 -26.13,-65.15 -4.97,-0.8 -9.38,0.41 -13.1,3.58 z m 80.69,-25.74 -24.72,24.92 c 9.51,15.85 15.82,38.13 15.82,68.21 0,33.61 -7.92,58.12 -22.9,70.92 -9.66,8.23 -22.05,11.44 -35.81,9.26 -28.69,-4.55 -59.33,-33.09 -59.33,-99.54 0,-33.61 7.93,-58.125 22.9,-70.93 9.66,-8.231 22.03,-11.434 35.79,-9.258 8.61,1.367 17.37,4.902 25.45,10.949 l 23.49,-23.672 19.31,19.141"

						id="path100"
						style="fill:#ef2e31;fill-opacity:1;fill-rule:nonzero;stroke:none" />
						<path
						d="m 1746.1,1205.28 0,-27.21 -29.86,-4.64 0,-31.87 26.31,4.07 0,-27.2 -26.31,-4.09 0,-33.06 30.25,4.7 0,-27.2 -59.72,-9.29 0,146.58 59.33,9.21"

						id="path102"
						style="fill:#ef2e31;fill-opacity:1;fill-rule:nonzero;stroke:none" />
						<path
						d="m 1342.68,959.82 c -7.45,2.969 -16.15,3.535 -27.33,1.758 -26.56,-4.219 -43.97,-25.195 -44.39,-53.437 -0.38,-25.664 15.17,-37.266 28.88,-47.52 11.6,-8.633 21.6,-16.133 21.4,-30.586 -0.07,-5.039 -1.69,-21.738 -19.41,-24.57 -8.51,-1.348 -15.05,0.937 -22.25,4.765 l -4.19,2.227 -0.42,-29.473 1.43,-0.859 c 7.52,-4.531 17.72,-6.055 28.68,-4.316 29.98,4.746 46.01,31.093 46.36,54.668 0.38,25.136 -10.73,35.996 -26.48,48.593 0.09,-0.078 -18.19,15.918 -18.19,15.918 -4.1,4.414 -5.67,8.672 -5.57,15.391 0.13,9.805 6.93,20.762 19.63,22.773 7.57,1.211 12.99,-0.605 18.85,-3.691 l 4.12,-2.188 0.78,29.786 -1.9,0.761"

						id="path104"
						style="fill:#ef2e31;fill-opacity:1;fill-rule:nonzero;stroke:none" />
						<path
						d="m 1393.97,939.977 0,-95.157 c 0,-11.113 -1.35,-28.105 14.25,-25.625 14.06,2.227 14.06,12.95 14.26,23.887 l 0,101.406 28.69,4.551 0,-107.258 c 0,-15.593 -1.73,-42.39 -43.15,-48.953 -26.76,-4.238 -42.75,5.91 -42.75,33.41 l 0,109.2 28.7,4.539"

						id="path106"
						style="fill:#ef2e31;fill-opacity:1;fill-rule:nonzero;stroke:none" />
						<path
						d="m 1499.51,956.695 0,-147.031 -28.7,-4.551 0,147.032 28.7,4.55"

						id="path108"
						style="fill:#ef2e31;fill-opacity:1;fill-rule:nonzero;stroke:none" />
						<path
						d="m 1579.62,936.227 c -5.77,4.16 -12.9,7.324 -20.79,6.074 -8.86,-1.406 -14.45,-7.742 -14.45,-16.719 0,-24.18 43.73,-18.621 43.73,-58.398 0,-26.133 -14.84,-48.184 -41.8,-52.45 -8.09,-1.281 -18.1,-0.324 -24.65,3.504 l 0,27.696 c 6.74,-3.614 13.29,-5.696 21.76,-4.356 9.25,1.465 16.57,8.867 16.57,18.613 0,11.309 -8.86,14.2 -16.96,18.77 -16.56,8.691 -26.77,17.988 -26.77,39.434 0,23.214 13.3,45.39 37.95,49.296 9.24,1.465 17.52,0.254 25.41,-3.183 l 0,-28.281"

						id="path110"
						style="fill:#ef2e31;fill-opacity:1;fill-rule:nonzero;stroke:none" />
						<path
						d="m 1664.37,949.656 c -5.77,4.149 -12.9,7.313 -20.79,6.063 -8.87,-1.399 -14.45,-7.735 -14.45,-16.719 0,-24.18 43.72,-18.613 43.72,-58.398 0,-26.133 -14.84,-48.172 -41.79,-52.442 -8.1,-1.289 -18.11,-0.332 -24.66,3.496 l 0,27.696 c 6.75,-3.614 13.29,-5.684 21.76,-4.356 9.26,1.465 16.57,8.867 16.57,18.613 0,11.309 -8.86,14.2 -16.95,18.77 -16.56,8.691 -26.77,17.988 -26.77,39.433 0,23.223 13.29,45.403 37.95,49.297 9.24,1.465 17.52,0.254 25.41,-3.171 l 0,-28.282"

						id="path112"
						style="fill:#ef2e31;fill-opacity:1;fill-rule:nonzero;stroke:none" />
						<path
						d="m 1747.18,995.926 0,-27.309 -29.08,-4.597 0,-31.993 25.62,4.063 0,-27.305 -25.62,-4.043 0,-33.164 29.47,4.668 0,-27.285 -58.17,-9.219 0,147.031 57.78,9.153"

						id="path114"
						style="fill:#ef2e31;fill-opacity:1;fill-rule:nonzero;stroke:none" />
						<path
						d="m 364.684,54.3281 14.695,0 c 8.957,0 16.516,6.1524 16.516,19.4531 0,10.9376 -5.176,18.0704 -17.356,18.0704 l -13.855,0 0,-37.5235 z m -12.325,47.6019 25.477,0 c 8.684,0 30.937,0 30.937,-28.6995 0,-18.6289 -11.894,-28.9805 -28.835,-28.9805 l -15.254,0 0,-42.28906 -12.325,0 0,99.96906"

						id="path116"
						style="fill:#231f20;fill-opacity:1;fill-rule:nonzero;stroke:none" />
						<path
						d="m 467.465,39.4805 c 0,16.25 -2.383,30.2578 -14.981,30.2578 -11.902,0 -14.422,-14.0078 -14.422,-30.2578 0,-16.2305 2.383,-30.2305 14.422,-30.2305 12.461,0 14.981,14 14.981,30.2305 z m -14.695,39.5 c 21.699,0 27.011,-18.3399 27.011,-39.5 0,-21.1289 -5.461,-39.4687812 -27.011,-39.4687812 -21.7,0 -27.024,18.3398812 -27.024,39.4687812 0,21.1601 5.461,39.5 27.024,39.5"

						id="path118"
						style="fill:#231f20;fill-opacity:1;fill-rule:nonzero;stroke:none" />
						<path
						d="m 553.559,1.96094 -11.2,0 0,8.82816 -0.273,0 C 539,3.94141 531.156,0.0117188 523.883,0.0117188 c -19.746,0 -19.746,14.9765812 -19.746,23.7890812 l 0,53.1992 11.765,0 0,-51.7891 c 0,-5.75 0.422,-15.1211 11.055,-15.1211 6.301,0 14.844,4.1993 14.844,15.1211 l 0,51.7891 11.758,0 0,-75.03906"

						id="path120"
						style="fill:#231f20;fill-opacity:1;fill-rule:nonzero;stroke:none" />
						<path
						d="m 581.559,77 11.765,0 0,-11.1914 0.274,0 c 3.359,7.1328 7.843,13.1719 16.242,13.1719 2.383,0 4.062,-0.3008 5.183,-0.8399 l 0,-11.4922 c -1.121,0.1407 -2.519,0.5704 -6.296,0.5704 -5.879,0 -15.403,-5.3282 -15.403,-17.7891 l 0,-47.46876 -11.765,0 0,75.03906"

						id="path122"
						style="fill:#231f20;fill-opacity:1;fill-rule:nonzero;stroke:none" />
						<path
						d="m 731.215,1.96094 -11.199,0 0,8.82816 -0.274,0 C 716.656,3.94141 708.812,0.0117188 701.539,0.0117188 c -19.746,0 -19.746,14.9765812 -19.746,23.7890812 l 0,53.1992 11.766,0 0,-51.7891 c 0,-5.75 0.421,-15.1211 11.054,-15.1211 6.301,0 14.844,4.1993 14.844,15.1211 l 0,51.7891 11.758,0 0,-75.03906"

						id="path124"
						style="fill:#231f20;fill-opacity:1;fill-rule:nonzero;stroke:none" />
						<path
						d="m 759.215,77 11.199,0 0,-8.8086 0.285,0 c 3.074,6.8594 10.918,10.7891 18.203,10.7891 19.735,0 19.735,-14.9805 19.735,-23.8086 l 0,-53.21096 -11.758,0 0,51.80076 c 0,5.7383 -0.418,15.1367 -11.063,15.1367 -6.3,0 -14.836,-4.2187 -14.836,-15.1367 l 0,-51.80076 -11.765,0 0,75.03906"

						id="path126"
						style="fill:#231f20;fill-opacity:1;fill-rule:nonzero;stroke:none" />
						<path
						d="m 873.59,47.3398 0,4.0586 c 0,8.4024 -2.656,18.3399 -13.02,18.3399 -12.324,0 -13.718,-15.1367 -13.718,-19.6094 l 0,-2.7891 26.738,0 z m -27.16,-9.2382 c 0,-11.4922 0,-28.8516 14.425,-28.8516 11.192,0 12.735,11.7617 12.735,17.3594 l 11.758,0 c 0,-7.9883 -4.758,-26.5976812 -25.196,-26.5976812 -18.34,0 -26.047,12.7382812 -26.047,38.4999812 0,18.7695 3.645,40.4688 26.75,40.4688 22.957,0 25.059,-20.0196 25.059,-36.1407 l 0,-4.7382 -39.484,0"

						id="path128"
						style="fill:#231f20;fill-opacity:1;fill-rule:nonzero;stroke:none" />
						<path
						d="m 1000.42,76.0312 c 0,10.5 -3.775,17.7696 -15.533,17.7696 -10.36,0 -16.524,-5.5899 -16.524,-16.2305 0,-28.1406 47.187,-11.3515 47.187,-47.8711 0,-23.10936 -16.941,-29.6874812 -31.081,-29.6874812 -23.379,0 -30.246,12.0273812 -30.246,33.3163812 l 12.324,0 c 0,-11.207 0.703,-23.2383 18.762,-23.2383 9.804,0 17.361,6.9883 17.361,17.6407 0,28.2812 -47.186,11.8906 -47.186,48.5703 0,9.2578 3.926,27.5972 29.266,27.5972 19.03,0 27.72,-9.5269 28,-27.8668 l -12.33,0"

						id="path130"
						style="fill:#231f20;fill-opacity:1;fill-rule:nonzero;stroke:none" />
						<path
						d="m 1089.61,1.96094 -11.2,0 0,8.82816 -0.27,0 c -3.09,-6.84769 -10.93,-10.7773812 -18.2,-10.7773812 -19.75,0 -19.75,14.9765812 -19.75,23.7890812 l 0,53.1992 11.77,0 0,-51.7891 c 0,-5.75 0.42,-15.1211 11.05,-15.1211 6.3,0 14.85,4.1993 14.85,15.1211 l 0,51.7891 11.75,0 0,-75.03906"

						id="path132"
						style="fill:#231f20;fill-opacity:1;fill-rule:nonzero;stroke:none" />
						<path
						d="m 1118.31,77 11.75,0 0,-75.03906 -11.75,0 0,75.03906 z m 0,24.93 11.75,0 0,-13.4417 -11.75,0 0,13.4417"

						id="path134"
						style="fill:#231f20;fill-opacity:1;fill-rule:nonzero;stroke:none" />
						<path
						d="m 1190.97,55.0312 c 0,9.5079 -2.52,14.7071 -11.06,14.7071 -3.78,0 -12.18,-1 -12.18,-11.4883 0,-8.8203 9.24,-10.5 18.48,-13.5898 9.1,-3.0704 18.34,-6.2891 18.34,-21.129 0,-15.82026 -10.22,-23.5194812 -24.22,-23.5194812 -25.48,0 -25.76,18.9101812 -25.76,26.5976812 l 11.76,0 c 0,-9.0977 2.52,-17.3594 14,-17.3594 3.78,0 12.46,1.8203 12.46,12.4609 0,10.0782 -9.24,12.1875 -18.34,15.25 -9.1,3.0899 -18.48,5.75 -18.48,21.2891 0,14.0117 10.92,20.7305 23.94,20.7305 21.84,0 22.68,-15.1407 22.82,-23.9493 l -11.76,0"

						id="path136"
						style="fill:#231f20;fill-opacity:1;fill-rule:nonzero;stroke:none" />
						<path
						d="m 1260.55,55.0312 c 0,9.5079 -2.52,14.7071 -11.06,14.7071 -3.78,0 -12.18,-1 -12.18,-11.4883 0,-8.8203 9.24,-10.5 18.48,-13.5898 9.1,-3.0704 18.34,-6.2891 18.34,-21.129 0,-15.82026 -10.22,-23.5194812 -24.22,-23.5194812 -25.48,0 -25.76,18.9101812 -25.76,26.5976812 l 11.76,0 c 0,-9.0977 2.52,-17.3594 14,-17.3594 3.78,0 12.46,1.8203 12.46,12.4609 0,10.0782 -9.24,12.1875 -18.34,15.25 -9.1,3.0899 -18.48,5.75 -18.48,21.2891 0,14.0117 10.92,20.7305 23.94,20.7305 21.84,0 22.68,-15.1407 22.82,-23.9493 l -11.76,0"

						id="path138"
						style="fill:#231f20;fill-opacity:1;fill-rule:nonzero;stroke:none" />
						<path
						d="m 1334.89,47.3398 0,4.0586 c 0,8.4024 -2.66,18.3399 -13.02,18.3399 -12.32,0 -13.72,-15.1367 -13.72,-19.6094 l 0,-2.7891 26.74,0 z m -27.16,-9.2382 c 0,-11.4922 0,-28.8516 14.42,-28.8516 11.19,0 12.74,11.7617 12.74,17.3594 l 11.76,0 c 0,-7.9883 -4.76,-26.5976812 -25.2,-26.5976812 -18.34,0 -26.04,12.7382812 -26.04,38.4999812 0,18.7695 3.64,40.4688 26.74,40.4688 22.96,0 25.06,-20.0196 25.06,-36.1407 l 0,-4.7382 -39.48,0"

						id="path140"
						style="fill:#231f20;fill-opacity:1;fill-rule:nonzero;stroke:none" />
						<path
						d="m 1422.39,67.7617 -10.92,0 0,9.2383 10.92,0 0,8.8281 c 0,11.3321 4.9,17.2309 16.24,17.2309 l 8.53,0 0,-10.0981 -5.46,0 c -5.03,0 -7.55,-1.9492 -7.55,-7.1328 l 0,-8.8281 12.88,0 0,-9.2383 -12.88,0 0,-65.80076 -11.76,0 0,65.80076"

						id="path142"
						style="fill:#231f20;fill-opacity:1;fill-rule:nonzero;stroke:none" />
						<path
						d="m 1505.83,39.4805 c 0,16.25 -2.39,30.2578 -14.99,30.2578 -11.9,0 -14.42,-14.0078 -14.42,-30.2578 0,-16.2305 2.38,-30.2305 14.42,-30.2305 12.47,0 14.99,14 14.99,30.2305 z m -14.7,39.5 c 21.7,0 27.01,-18.3399 27.01,-39.5 0,-21.1289 -5.46,-39.4687812 -27.01,-39.4687812 -21.7,0 -27.02,18.3398812 -27.02,39.4687812 0,21.1601 5.46,39.5 27.02,39.5"

						id="path144"
						style="fill:#231f20;fill-opacity:1;fill-rule:nonzero;stroke:none" />
						<path
						d="m 1542.5,77 11.76,0 0,-11.1914 0.28,0 c 3.36,7.1328 7.84,13.1719 16.24,13.1719 2.38,0 4.06,-0.3008 5.18,-0.8399 l 0,-11.4922 c -1.12,0.1407 -2.52,0.5704 -6.3,0.5704 -5.88,0 -15.4,-5.3282 -15.4,-17.7891 l 0,-47.46876 -11.76,0 0,75.03906"

						id="path146"
						style="fill:#231f20;fill-opacity:1;fill-rule:nonzero;stroke:none" />
						<path
						d="m 1600.04,98.8398 11.76,0 0,-21.8398 13.02,0 0,-9.2383 -13.02,0 0,-48.1601 c 0,-6.0118 1.54,-8.4024 7.71,-8.4024 2.52,0 3.91,0.3008 5.17,0.4297 l 0,-9.66796 c -1.54,-0.26953 -4.62,-0.83985 -9.52,-0.83985 -12.18,0 -15.12,5.03907 -15.12,14.84771 l 0,51.7929 -10.91,0 0,9.2383 10.91,0 0,21.8398"

						id="path148"
						style="fill:#231f20;fill-opacity:1;fill-rule:nonzero;stroke:none" />
						<path
						d="m 1682.36,47.3398 0,4.0586 c 0,8.4024 -2.66,18.3399 -13.02,18.3399 -12.32,0 -13.72,-15.1367 -13.72,-19.6094 l 0,-2.7891 26.74,0 z m -27.16,-9.2382 c 0,-11.4922 0,-28.8516 14.42,-28.8516 11.2,0 12.74,11.7617 12.74,17.3594 l 11.76,0 c 0,-7.9883 -4.76,-26.5976812 -25.2,-26.5976812 -18.34,0 -26.04,12.7382812 -26.04,38.4999812 0,18.7695 3.64,40.4688 26.74,40.4688 22.96,0 25.06,-20.0196 25.06,-36.1407 l 0,-4.7382 -39.48,0"

						id="path150"
						style="fill:#231f20;fill-opacity:1;fill-rule:nonzero;stroke:none" />
					</g>
				</g>
			</g>
		</g>
	</g>
</svg>